<svg xmlns="http://www.w3.org/2000/svg" viewBox="0 0 304.19 31.53"><defs><style>.cls-1{fill:#fff;}.cls-2{fill:#76bc21;}</style></defs><title>Landing-page-logo</title><g id="Layer_2" data-name="Layer 2"><g id="Layer_1-2" data-name="Layer 1"><path class="cls-1" d="M0,15.74C0,7,6.05,0,14.58,0a14.26,14.26,0,0,1,8.78,3A14.88,14.88,0,0,1,27.28,7.7l-6,3a7.51,7.51,0,0,0-2.26-3.07A6.55,6.55,0,0,0,14.92,6.1c-4.86,0-7.42,4.47-7.42,9.43,0,6.53,3.37,9.77,7.42,9.77s5.5-2.69,6.52-4.42l5.93,3a15.46,15.46,0,0,1-4.56,5.05,14.82,14.82,0,0,1-8.4,2.61C6.44,31.53,0,25.81,0,15.74"/><path class="cls-1" d="M49.94,25.05a17,17,0,0,1-2.68,3.28,12.31,12.31,0,0,1-8.4,3.12c-6.61,0-11.26-4.17-11.26-11.37C27.6,14.78,30.25,8,39,8a10.86,10.86,0,0,1,8,3.15c2.9,3.08,3.07,7.37,3.16,9.85H34.3c0,2.74,1.53,5.48,5.07,5.48s4.82-2.32,5.63-3.88Zm-6.52-8.13a5.2,5.2,0,0,0-1.24-3.11A4.64,4.64,0,0,0,39,12.59,4.52,4.52,0,0,0,35.66,14a5.74,5.74,0,0,0-1.32,2.9Z"/><path class="cls-1" d="M58.54,10.65a6.5,6.5,0,0,1,2.22-1.73,10.93,10.93,0,0,1,4.05-.8,8.61,8.61,0,0,1,4,.89c2.34,1.22,2.94,3.2,2.94,6.61v15H65.2V18.27A8.79,8.79,0,0,0,64.9,15a3,3,0,0,0-3-1.69c-3.45,0-3.45,2.74-3.45,5.47V30.65H51.94V8.71h6.6Z"/><path class="cls-1" d="M76.27,2.32h6.52V9.18H87.1v4H82.75V23c0,1.34,0,2.48,1.7,2.48l2.35-.08v5.05a21.36,21.36,0,0,1-3.46.34c-2.25,0-4.73-.13-6.13-2.15-.9-1.31-.94-2.86-.94-5V13.09H73v-4h3.24Z"/><path class="cls-1" d="M95.43,10.94a10.42,10.42,0,0,1,6.44-2.52v5.72l-2.18.34c-3.15.55-4.09,1-4.09,3.79V30.65H89v-22h6.39Z"/><path class="cls-1" d="M124.48,25.05a17,17,0,0,1-2.68,3.28,12.31,12.31,0,0,1-8.4,3.12c-6.61,0-11.25-4.17-11.25-11.37,0-5.3,2.64-12.12,11.42-12.12a10.89,10.89,0,0,1,8,3.15c2.89,3.08,3.06,7.37,3.15,9.85h-15.9c0,2.74,1.53,5.48,5.07,5.48s4.82-2.32,5.63-3.88ZM118,16.92a5.25,5.25,0,0,0-1.23-3.11,4.66,4.66,0,0,0-3.2-1.22A4.52,4.52,0,0,0,110.2,14a5.82,5.82,0,0,0-1.32,2.9Z"/><path class="cls-1" d="M123.49,8.67h6.91c2.73,9.77,3.2,11.79,3.92,16,.9-4.88,1-5.43,2.35-10.61L138,8.67h6.74l-7.21,22H130.7Z"/><path class="cls-1" d="M146.37,8.63h6.48v22h-6.48Z"/><path class="cls-1" d="M162.44.93V30.65h-6.57V.93Z"/><path class="cls-1" d="M172,.93V30.65h-6.56V.93Z"/><path class="cls-1" d="M196.58,25.05a17.46,17.46,0,0,1-2.69,3.28,12.31,12.31,0,0,1-8.4,3.12c-6.6,0-11.25-4.17-11.25-11.37,0-5.3,2.64-12.12,11.42-12.12a10.88,10.88,0,0,1,8,3.15c2.9,3.08,3.07,7.37,3.15,9.85h-15.9c0,2.74,1.54,5.48,5.07,5.48s4.82-2.32,5.63-3.88Zm-6.52-8.13a5.2,5.2,0,0,0-1.24-3.11,4.66,4.66,0,0,0-3.2-1.22A4.52,4.52,0,0,0,182.3,14a5.65,5.65,0,0,0-1.32,2.9Z"/><polygon class="cls-2" points="145.16 0.99 154.17 0.99 149.62 7.27 145.16 0.99"/><path class="cls-2" d="M230,14.9A6.09,6.09,0,0,1,232.36,10c2-1.6,4.69-1.94,7.29-1.94S249,8.71,249,14.4V27.19c0,2.36.13,2.7.64,3.46h-6.44v-2a10.52,10.52,0,0,1-6.82,2.61c-5.11,0-7.29-3.62-7.29-6.7,0-3.53,2.86-5.55,4.69-6.31a57,57,0,0,1,8.78-2V15c-.08-1-.16-2.7-2.51-2.7-2.9,0-3.28,1.77-3.45,2.57Zm8.31,6.61c-1.1.42-2.81,1-2.81,2.74A2.37,2.37,0,0,0,238,26.48a4.35,4.35,0,0,0,2.26-.72c2.18-1.34,2.26-3.36,2.3-5.64Z"/><path class="cls-2" d="M258.07,10.65a6.5,6.5,0,0,1,2.22-1.73,10.93,10.93,0,0,1,4-.8,8.59,8.59,0,0,1,4,.89c2.34,1.22,2.94,3.2,2.94,6.61v15h-6.52V18.27a8.49,8.49,0,0,0-.31-3.28,3,3,0,0,0-2.94-1.69C258,13.3,258,16,258,18.77V30.65h-6.56V8.71h6.6Z"/><path class="cls-2" d="M274.23.93h6.44V16.21l7.2-7.54h7.89l-7.67,7.83,8.65,14.15h-7.59l-5.71-9.47-2.81,2.6v6.87h-6.4Z"/><path class="cls-2" d="M226.23,17.89c-1.67-1.85-4.1-2.23-5.93-2.52,1.62-.34,4.52-.93,5.89-4a7.05,7.05,0,0,0,.55-2.86,7,7,0,0,0-5.2-6.91,29,29,0,0,0-7.85-.71H202.06V11l7,4.22-7,4.14V30.65h12.7c3.45,0,5.88-.13,8.14-1.1a7.91,7.91,0,0,0,5-7.2A6.61,6.61,0,0,0,226.23,17.89Zm-17-11.41h6.18c1.45,0,4,.13,4,3,0,3.07-2.77,3.16-4.47,3.2h-5.67Zm5.24,18.78h-5.24v-7.2h6.52c1.53,0,4.52.08,4.52,3.66C220.26,25.13,217,25.22,214.46,25.26Z"/><path class="cls-2" d="M300.74,26.44h.7a.46.46,0,0,1,.48.51.48.48,0,0,1-.48.54h-.7m0,.43h.54a.43.43,0,0,1,.5.38,3.6,3.6,0,0,0,.14,1.12h.53a6.61,6.61,0,0,1-.14-.88c0-.67-.16-.8-.58-.85h0a.82.82,0,0,0,.73-.78.83.83,0,0,0-.93-.83h-1.34v3.35h.55Zm.55-3.09a2.91,2.91,0,1,0,2.9,2.89,2.9,2.9,0,0,0-2.9-2.89m0,.43a2.48,2.48,0,1,1-2.49,2.48,2.47,2.47,0,0,1,2.49-2.48"/></g></g></svg>