<svg xmlns="http://www.w3.org/2000/svg" xmlns:xlink="http://www.w3.org/1999/xlink" viewBox="0 0 111.71 121.59"><defs><style>.cls-1{fill:#fff;}.cls-2{fill:#e42229;}.cls-3{fill:url(#radial-gradient);}.cls-4{fill:url(#radial-gradient-2);}.cls-5{fill:url(#radial-gradient-3);}.cls-6{fill:#1d1d1b;}</style><radialGradient id="radial-gradient" cx="56.89" cy="29.18" r="47.16" gradientTransform="translate(-1.27 0.24) scale(0.99)" gradientUnits="userSpaceOnUse"><stop offset="0" stop-color="#004a99"/><stop offset="0.14" stop-color="#004793"/><stop offset="0.32" stop-color="#003e83"/><stop offset="0.53" stop-color="#002f68"/><stop offset="0.75" stop-color="#001b42"/><stop offset="0.99" stop-color="#000112"/><stop offset="1" stop-color="#000010"/></radialGradient><radialGradient id="radial-gradient-2" cx="56.89" cy="29.18" r="47.16" xlink:href="#radial-gradient"/><radialGradient id="radial-gradient-3" cx="56.9" cy="29.18" r="47.15" xlink:href="#radial-gradient"/></defs><g id="Layer_2" data-name="Layer 2"><g id="Layer_1-2" data-name="Layer 1"><g id="PKOBP-pion"><rect class="cls-1" width="111.71" height="121.59"/><path class="cls-2" d="M55.48,27.12a6.78,6.78,0,1,0-6.78-6.78A6.77,6.77,0,0,0,55.48,27.12Z"/><path class="cls-3" d="M55.51,46.57c9,0,16.69-2.23,19.94-5.33a4.63,4.63,0,0,0,1.67-3.32,4.65,4.65,0,0,0-1.67-3.33,14.87,14.87,0,0,0-4.63-2.76,42.52,42.52,0,0,0-15.35-2.56h0c-8.06,0-15,1.84-18.78,4.41a5.9,5.9,0,0,0-2.8,5.39c0,.15,0,17.22,0,17.22v6.84A7.71,7.71,0,0,0,35,67.65a13.36,13.36,0,0,0,4.7,4.69l.14.09V43.9L40,44a42.37,42.37,0,0,0,15.43,2.6Zm-9.17-8.94a.83.83,0,0,1-.19-.5A1.32,1.32,0,0,1,47,36a1.76,1.76,0,0,1,.76-.18H63.6a1.76,1.76,0,0,1,.76.18,1.3,1.3,0,0,1,.81,1.11.77.77,0,0,1-.19.5,1.16,1.16,0,0,1-.87.39H47.22A1.18,1.18,0,0,1,46.34,37.63Z"/><path class="cls-4" d="M58.63,72.6V65.72a3.82,3.82,0,0,0-3.8-3.79h0v-.64a4.23,4.23,0,0,0,3.85-4.16V52.29a11.77,11.77,0,0,1,.4-3.21l0-.13h-.14c-.65,0-1.61.07-2.62.07-1.51,0-3.13-.05-4-.14h-.08l0,.08a10.58,10.58,0,0,0-.52,3.44v5.49a2.48,2.48,0,0,1-2.43,2.47V48.58h-.09a35.35,35.35,0,0,1-6.73-1.47l-.13-.05V74l.06,0a27.19,27.19,0,0,0,6.78,2h.11V62.26a2.48,2.48,0,0,1,2.44,2.48V72.2a12,12,0,0,0,.73,4.13l0,.06h.06c.52.06,1.43.09,2.45.09a34.42,34.42,0,0,0,4.14-.21h.11l0-.11A10.44,10.44,0,0,1,58.63,72.6Z"/><path class="cls-5" d="M76.48,45.89a1.2,1.2,0,0,0-1.19-1.15,1.26,1.26,0,0,0-.54.13A32.88,32.88,0,0,1,62.9,48.62a2.1,2.1,0,0,0-1.8,2.12V73.86a1.74,1.74,0,0,0,1.74,1.74,1.47,1.47,0,0,0,.36,0,24.47,24.47,0,0,0,9.29-4.34c2.21-1.85,4-4.42,4-7.44Zm-6,5.76V67.73a1.4,1.4,0,0,1-.69,1.11,1.18,1.18,0,0,1-1.62,0,.65.65,0,0,1-.11-.43V51.72a1.17,1.17,0,0,1,.93-1,1.9,1.9,0,0,1,.4-.05,1.07,1.07,0,0,1,1.07.68.85.85,0,0,1,0,.23Z"/><path class="cls-6" d="M23.11,101.39c-1.88,0-2.77-.47-2.77-1.71V92.31c0-2,1.82-1.86,2.63-1.86,2.7,0,3.66,1.21,3.66,2.6a2.64,2.64,0,0,1-1.95,2.47v0a2.85,2.85,0,0,1,2.59,2.84C27.27,99.91,26.26,101.39,23.11,101.39ZM23,91.24c-.68,0-1.33.09-1.33,1.24v2.8c.17,0,.52,0,1,0,1.59,0,2.66-.76,2.66-2.1C25.3,92,24.62,91.24,23,91.24ZM22.7,96c-.54,0-.83,0-1,0v3.5c0,.81.39,1.06,1.44,1.06,1.9,0,2.74-1,2.74-2.24C25.85,96.77,24.86,96,22.7,96Z"/><path class="cls-6" d="M34.92,101.24a2.56,2.56,0,0,1-.47,0c-.35,0-.57-.15-.63-.65l0-.36-.11,0a2.46,2.46,0,0,1-2,1.19c-1.72,0-2.9-1.28-2.9-3.73,0-2.62,1.72-4.45,3.51-4.45.88,0,2.66.23,2.66,1.59ZM33.66,95c0-.66-.38-1-1.4-1S30,95,30,97.41c0,2.21.91,3,1.95,3a2.2,2.2,0,0,0,1.69-.92Z"/><path class="cls-6" d="M41.7,101.25V95.61c0-.83-.44-1.68-1.87-1.68s-1.56.57-1.56,1.07v6.25H37V94.58a.88.88,0,0,1,.57-.92,5.26,5.26,0,0,1,2.3-.43c1.33,0,3.07.38,3.07,2.32v5.7Z"/><path class="cls-6" d="M46.17,101.25H44.93V89.86h1.24V97L48.7,94.1a2,2,0,0,1,1.54-.71,2.24,2.24,0,0,1,.44,0l-2.37,2.68c-.44.48-.94.91-1.28.91v.27a2.13,2.13,0,0,1,1.4.92l2.6,3a2.08,2.08,0,0,1-.52.06,1.87,1.87,0,0,1-1.51-.6c-.59-.68-2.83-3.5-2.83-3.5Z"/><path class="cls-6" d="M59.24,97.25c-.28,0-.72-.07-1-.1v4.1H56.89V92.46c0-.49-.28-2,2.66-2,2.63,0,3.82,1.47,3.82,3.3C63.37,95.82,62.09,97.25,59.24,97.25Zm.35-6c-1.45,0-1.33.88-1.33,1.24v3.9a7.74,7.74,0,0,0,.89.08c2,0,2.82-1.09,2.82-2.7A2.26,2.26,0,0,0,59.59,91.24Z"/><path class="cls-6" d="M67.42,101.43c-2.28,0-3.4-2-3.4-4.12s1.18-4.08,3.4-4.08,3.42,1.9,3.42,4.08S69.71,101.43,67.42,101.43Zm0-7.47c-1.48,0-2.06,1.58-2.06,3.18s.61,3.48,2.12,3.48,2.1-1.61,2.1-3.22S68.94,94,67.38,94Z"/><path class="cls-6" d="M72.37,101.25V89.91h1.27v11.34Z"/><path class="cls-6" d="M80.9,99.09c0,1.41-1.19,2.27-2.76,2.3-1.34,0-2.94-.73-2.94-2.41v0a1.73,1.73,0,0,1,.32,0,1.24,1.24,0,0,1,1.21.77,1.63,1.63,0,0,0,1.45,1,1.44,1.44,0,0,0,1.51-1.34c0-1.94-4.22-1.59-4.22-3.94,0-1.34,1.17-2.15,2.65-2.15,1.29,0,2.59.61,2.59,2.11a1.06,1.06,0,0,1-1.39-.73,1.28,1.28,0,0,0-1.14-.72h-.11a1.27,1.27,0,0,0-1.43,1.24C76.64,97,80.9,96.58,80.9,99.09Z"/><path class="cls-6" d="M83.78,101.25H82.54V89.86h1.24V97L86.3,94.1a2,2,0,0,1,1.55-.71,2.19,2.19,0,0,1,.43,0l-2.37,2.68c-.44.48-.94.91-1.27.91v.27a2.14,2.14,0,0,1,1.39.92l2.6,3a2,2,0,0,1-.51.06,1.85,1.85,0,0,1-1.51-.6c-.59-.68-2.83-3.5-2.83-3.5Z"/><path class="cls-6" d="M90.46,92a.91.91,0,1,1,.9-.91A.89.89,0,0,1,90.46,92Zm-.64,9.25V93.42h1.27v7.83Z"/></g></g></g></svg>